<svg xmlns="http://www.w3.org/2000/svg" xmlns:xlink="http://www.w3.org/1999/xlink" width="500" zoomAndPan="magnify" viewBox="0 0 375 374.999991" height="500" preserveAspectRatio="xMidYMid meet" version="1.0"><defs><g/><clipPath id="9b868fbad4"><path d="M 142.363281 138 L 232.363281 138 L 232.363281 192.128906 L 142.363281 192.128906 Z M 142.363281 138 " clip-rule="nonzero"/></clipPath></defs><rect x="-37.5" width="450" fill="#ffffff" y="-37.499999" height="449.999989" fill-opacity="1"/><rect x="-37.5" width="450" fill="#ffffff" y="-37.499999" height="449.999989" fill-opacity="1"/><rect x="-37.5" width="450" fill="#4b0560" y="-37.499999" height="449.999989" fill-opacity="1"/><path fill="#f4bd32" d="M 208.261719 107.640625 L 200.949219 115.300781 C 199.03125 117.292969 195.792969 116.808594 194.535156 114.335938 L 189.800781 104.863281 C 188.78125 102.875 185.964844 102.875 184.945312 104.863281 L 180.269531 114.335938 C 179.070312 116.808594 175.773438 117.292969 173.855469 115.300781 L 166.539062 107.640625 C 164.921875 105.949219 162.105469 107.460938 162.585938 109.75 L 167.261719 130.441406 C 167.738281 132.492188 169.539062 134 171.695312 134 L 203.109375 134 C 205.207031 134 207.0625 132.554688 207.542969 130.441406 L 212.21875 109.75 C 212.699219 107.460938 209.882812 105.949219 208.261719 107.640625 Z M 208.261719 107.640625 " fill-opacity="1" fill-rule="nonzero"/><g clip-path="url(#9b868fbad4)"><path fill="#f4f6fc" d="M 216.074219 138.351562 L 158.648438 138.351562 C 149.65625 138.351562 142.402344 145.648438 142.402344 154.699219 L 142.402344 175.871094 C 142.402344 184.917969 149.65625 192.21875 158.648438 192.21875 L 216.074219 192.21875 C 225.066406 192.21875 232.320312 184.917969 232.320312 175.871094 L 232.320312 154.699219 C 232.320312 145.648438 225.066406 138.351562 216.074219 138.351562 Z M 216.074219 138.351562 " fill-opacity="1" fill-rule="nonzero"/></g><path fill="#4b0560" d="M 175.671875 160.1875 L 171.894531 160.1875 C 171.054688 160.1875 170.335938 159.523438 170.335938 158.617188 L 170.335938 154.820312 C 170.335938 153.972656 169.675781 153.25 168.777344 153.25 L 161.765625 153.25 C 160.925781 153.25 160.207031 153.914062 160.207031 154.820312 L 160.207031 158.617188 C 160.207031 159.464844 159.546875 160.1875 158.648438 160.1875 L 154.871094 160.1875 C 154.03125 160.1875 153.3125 160.851562 153.3125 161.753906 L 153.3125 168.875 C 153.3125 169.71875 153.972656 170.441406 154.871094 170.441406 L 158.648438 170.441406 C 159.488281 170.441406 160.207031 171.105469 160.207031 172.011719 L 160.207031 175.8125 C 160.207031 176.65625 160.867188 177.378906 161.765625 177.378906 L 168.839844 177.378906 C 169.675781 177.378906 170.398438 176.714844 170.398438 175.8125 L 170.398438 172.011719 C 170.398438 171.164062 171.054688 170.441406 171.957031 170.441406 L 175.730469 170.441406 C 176.570312 170.441406 177.289062 169.777344 177.289062 168.875 L 177.289062 161.753906 C 177.230469 160.851562 176.511719 160.1875 175.671875 160.1875 Z M 175.671875 160.1875 " fill-opacity="1" fill-rule="nonzero"/><path fill="#4b0560" d="M 211.28125 156.566406 C 211.28125 158.378906 209.839844 159.824219 208.042969 159.824219 C 206.246094 159.824219 204.804688 158.378906 204.804688 156.566406 C 204.804688 154.757812 206.246094 153.3125 208.042969 153.3125 C 209.839844 153.3125 211.28125 154.757812 211.28125 156.566406 Z M 211.28125 156.566406 " fill-opacity="1" fill-rule="nonzero"/><path fill="#4b0560" d="M 211.28125 174 C 211.28125 175.8125 209.839844 177.257812 208.042969 177.257812 C 206.246094 177.257812 204.804688 175.8125 204.804688 174 C 204.804688 172.191406 206.246094 170.742188 208.042969 170.742188 C 209.839844 170.742188 211.28125 172.191406 211.28125 174 Z M 211.28125 174 " fill-opacity="1" fill-rule="nonzero"/><path fill="#4b0560" d="M 216.734375 168.511719 C 214.9375 168.511719 213.496094 167.0625 213.496094 165.253906 C 213.496094 163.445312 214.9375 161.996094 216.734375 161.996094 C 218.535156 161.996094 219.972656 163.445312 219.972656 165.253906 C 219.914062 167.0625 218.472656 168.511719 216.734375 168.511719 Z M 216.734375 168.511719 " fill-opacity="1" fill-rule="nonzero"/><path fill="#4b0560" d="M 199.351562 168.511719 C 197.550781 168.511719 196.113281 167.0625 196.113281 165.253906 C 196.113281 163.445312 197.550781 161.996094 199.351562 161.996094 C 201.148438 161.996094 202.585938 163.445312 202.585938 165.253906 C 202.585938 167.0625 201.148438 168.511719 199.351562 168.511719 Z M 199.351562 168.511719 " fill-opacity="1" fill-rule="nonzero"/><g fill="#ffffff" fill-opacity="1"><g transform="translate(132.007338, 223.351699)"><g><path d="M 9.347656 0.394531 C 12.230469 0.394531 14.828125 -0.792969 15.882812 -2.660156 L 15.902344 -2.660156 L 16.300781 0 L 21.03125 0 L 21.03125 -9.238281 L 8.976562 -9.238281 L 8.976562 -6.050781 L 14.914062 -6.050781 C 14.671875 -4.863281 13.285156 -4.070312 11.371094 -4.070312 C 8.710938 -4.070312 6.996094 -5.542969 6.996094 -7.808594 C 6.996094 -10.074219 8.425781 -11.546875 10.582031 -11.546875 C 11.988281 -11.546875 13.109375 -10.867188 13.441406 -9.832031 L 19.359375 -10.777344 C 18.71875 -14.101562 15.265625 -16.277344 10.625 -16.277344 C 4.574219 -16.277344 0.617188 -12.890625 0.617188 -7.699219 C 0.617188 -2.816406 4.070312 0.394531 9.347656 0.394531 Z M 9.347656 0.394531 "/></g></g></g><g fill="#ffffff" fill-opacity="1"><g transform="translate(155.081444, 223.351699)"><g><path d="M -0.0234375 0 L 6.578125 0 L 7.371094 -2.417969 L 13.109375 -2.417969 L 13.878906 0 L 20.5 0 L 14.101562 -15.839844 L 6.511719 -15.839844 Z M 8.359375 -6.160156 L 10.230469 -11.679688 L 10.273438 -11.679688 L 12.097656 -6.160156 Z M 8.359375 -6.160156 "/></g></g></g><g fill="#ffffff" fill-opacity="1"><g transform="translate(176.791791, 223.351699)"><g><path d="M 1.101562 0 L 6.929688 0 L 6.929688 -8.886719 L 6.972656 -8.886719 L 10.890625 0 L 15.839844 0 L 19.644531 -8.886719 L 19.6875 -8.886719 L 19.6875 0 L 25.515625 0 L 25.515625 -15.839844 L 17.445312 -15.839844 L 13.332031 -6.3125 L 13.285156 -6.3125 L 9.152344 -15.839844 L 1.101562 -15.839844 Z M 1.101562 0 "/></g></g></g><g fill="#ffffff" fill-opacity="1"><g transform="translate(204.617051, 223.351699)"><g><path d="M 1.101562 0 L 15.617188 0 L 15.617188 -4.289062 L 7.257812 -4.289062 L 7.257812 -6.226562 L 14.519531 -6.226562 L 14.519531 -9.855469 L 7.257812 -9.855469 L 7.257812 -11.546875 L 15.398438 -11.546875 L 15.398438 -15.839844 L 1.101562 -15.839844 Z M 1.101562 0 "/></g></g></g><g fill="#ffffff" fill-opacity="1"><g transform="translate(221.884182, 223.351699)"><g><path d="M 10.910156 0.441406 C 16.453125 0.441406 20.304688 -2.242188 20.855469 -6.46875 L 14.957031 -7.257812 C 14.648438 -5.519531 13.132812 -4.398438 11.042969 -4.398438 C 8.558594 -4.398438 6.996094 -5.761719 6.996094 -7.917969 C 6.996094 -10.074219 8.359375 -11.4375 10.515625 -11.4375 C 12.1875 -11.4375 13.332031 -10.515625 13.726562 -9.0625 L 19.511719 -10.316406 C 18.785156 -13.96875 15.246094 -16.277344 10.40625 -16.277344 C 4.398438 -16.277344 0.617188 -13.023438 0.617188 -7.917969 C 0.617188 -2.707031 4.621094 0.441406 10.910156 0.441406 Z M 10.910156 0.441406 "/></g></g></g><g fill="#ffffff" fill-opacity="1"><g transform="translate(92.642363, 243.894279)"><g><path d="M 0.671875 -4.78125 L 4.96875 -4.78125 L 4.96875 -3.8125 L 0.671875 -3.8125 Z M 0.671875 -4.78125 "/></g></g></g><g fill="#ffffff" fill-opacity="1"><g transform="translate(99.074521, 243.894279)"><g/></g></g><g fill="#ffffff" fill-opacity="1"><g transform="translate(103.694018, 243.894279)"><g><path d="M 8.15625 -2.890625 C 8.15625 -2.492188 8.078125 -2.117188 7.921875 -1.765625 C 7.773438 -1.421875 7.570312 -1.113281 7.3125 -0.84375 C 7.050781 -0.582031 6.738281 -0.375 6.375 -0.21875 C 6.019531 -0.0703125 5.644531 0 5.25 0 L 0.8125 0 L 0.8125 -10.375 L 4.875 -10.375 C 5.21875 -10.375 5.546875 -10.300781 5.859375 -10.15625 C 6.171875 -10.019531 6.441406 -9.832031 6.671875 -9.59375 C 6.910156 -9.363281 7.097656 -9.09375 7.234375 -8.78125 C 7.367188 -8.46875 7.4375 -8.128906 7.4375 -7.765625 C 7.4375 -7.316406 7.363281 -6.910156 7.21875 -6.546875 C 7.070312 -6.179688 6.835938 -5.867188 6.515625 -5.609375 C 7.066406 -5.410156 7.476562 -5.0625 7.75 -4.5625 C 8.019531 -4.070312 8.15625 -3.515625 8.15625 -2.890625 Z M 2.34375 -6.171875 C 2.726562 -6.160156 3.085938 -6.15625 3.421875 -6.15625 L 4.890625 -6.15625 C 5.253906 -6.15625 5.5625 -6.289062 5.8125 -6.5625 C 6.070312 -6.84375 6.203125 -7.179688 6.203125 -7.578125 C 6.203125 -7.972656 6.070312 -8.304688 5.8125 -8.578125 C 5.5625 -8.859375 5.253906 -9 4.890625 -9 L 2.34375 -9 Z M 2.34375 -1.421875 C 2.40625 -1.410156 2.554688 -1.40625 2.796875 -1.40625 L 5.25 -1.40625 C 5.457031 -1.40625 5.648438 -1.445312 5.828125 -1.53125 C 6.003906 -1.625 6.160156 -1.742188 6.296875 -1.890625 C 6.441406 -2.046875 6.550781 -2.222656 6.625 -2.421875 C 6.695312 -2.628906 6.734375 -2.847656 6.734375 -3.078125 C 6.734375 -3.316406 6.695312 -3.535156 6.625 -3.734375 C 6.550781 -3.929688 6.441406 -4.101562 6.296875 -4.25 C 6.160156 -4.40625 6.003906 -4.523438 5.828125 -4.609375 C 5.648438 -4.703125 5.457031 -4.75 5.25 -4.75 L 2.34375 -4.75 Z M 2.34375 -1.421875 "/></g></g></g><g fill="#ffffff" fill-opacity="1"><g transform="translate(113.269092, 243.894279)"><g><path d="M 3.78125 -4.859375 L 0.125 -10.375 L 1.953125 -10.375 L 4.546875 -6.484375 L 7.140625 -10.375 L 8.984375 -10.375 L 5.328125 -4.859375 L 5.328125 0 L 3.78125 0 Z M 3.78125 -4.859375 "/></g></g></g><g fill="#ffffff" fill-opacity="1"><g transform="translate(123.238854, 243.894279)"><g/></g></g><g fill="#ffffff" fill-opacity="1"><g transform="translate(127.858351, 243.894279)"><g><path d="M 6.609375 -5.546875 L 9.4375 -5.546875 L 9.4375 -1.734375 C 8.96875 -1.179688 8.398438 -0.726562 7.734375 -0.375 C 7.066406 -0.03125 6.347656 0.140625 5.578125 0.140625 C 4.867188 0.140625 4.203125 0 3.578125 -0.28125 C 2.953125 -0.5625 2.410156 -0.941406 1.953125 -1.421875 C 1.492188 -1.910156 1.128906 -2.472656 0.859375 -3.109375 C 0.597656 -3.753906 0.46875 -4.441406 0.46875 -5.171875 C 0.46875 -5.898438 0.597656 -6.585938 0.859375 -7.234375 C 1.128906 -7.878906 1.492188 -8.441406 1.953125 -8.921875 C 2.410156 -9.410156 2.953125 -9.796875 3.578125 -10.078125 C 4.203125 -10.359375 4.867188 -10.5 5.578125 -10.5 C 6.210938 -10.5 6.816406 -10.367188 7.390625 -10.109375 C 7.972656 -9.859375 8.492188 -9.53125 8.953125 -9.125 L 8.046875 -7.96875 C 7.722656 -8.3125 7.347656 -8.585938 6.921875 -8.796875 C 6.492188 -9.003906 6.046875 -9.109375 5.578125 -9.109375 C 5.078125 -9.109375 4.609375 -9.003906 4.171875 -8.796875 C 3.742188 -8.585938 3.367188 -8.300781 3.046875 -7.9375 C 2.722656 -7.582031 2.46875 -7.164062 2.28125 -6.6875 C 2.09375 -6.21875 2 -5.710938 2 -5.171875 C 2 -4.640625 2.09375 -4.132812 2.28125 -3.65625 C 2.46875 -3.1875 2.722656 -2.773438 3.046875 -2.421875 C 3.367188 -2.066406 3.742188 -1.785156 4.171875 -1.578125 C 4.609375 -1.367188 5.078125 -1.265625 5.578125 -1.265625 C 6.035156 -1.265625 6.460938 -1.351562 6.859375 -1.53125 C 7.253906 -1.71875 7.609375 -1.960938 7.921875 -2.265625 L 7.921875 -4.125 L 6.609375 -4.125 Z M 6.609375 -5.546875 "/></g></g></g><g fill="#ffffff" fill-opacity="1"><g transform="translate(139.041428, 243.894279)"><g><path d="M 1.828125 0 L 0.15625 0 L 4.46875 -10.375 L 6.15625 -10.375 L 10.46875 0 L 8.8125 0 L 7.453125 -3.25 L 3.171875 -3.25 Z M 3.765625 -4.65625 L 6.875 -4.65625 L 5.328125 -8.390625 Z M 3.765625 -4.65625 "/></g></g></g><g fill="#ffffff" fill-opacity="1"><g transform="translate(150.546102, 243.894279)"><g><path d="M 9.65625 -10.375 L 11.1875 -10.375 L 11.1875 0 L 9.671875 0 L 9.671875 -7.953125 L 6.640625 -3.78125 L 5.453125 -3.78125 L 2.40625 -7.953125 L 2.40625 0 L 0.875 0 L 0.875 -10.375 L 2.40625 -10.375 L 6.046875 -5.375 Z M 9.65625 -10.375 "/></g></g></g><g fill="#ffffff" fill-opacity="1"><g transform="translate(163.410275, 243.894279)"><g><path d="M 7.15625 -10.375 L 7.15625 -9 L 2.34375 -9 L 2.34375 -6.171875 L 6.625 -6.171875 L 6.625 -4.75 L 2.34375 -4.75 L 2.34375 -1.421875 L 7.15625 -1.421875 L 7.15625 0 L 0.8125 0 L 0.8125 -10.375 Z M 7.15625 -10.375 "/></g></g></g><g fill="#ffffff" fill-opacity="1"><g transform="translate(172.23982, 243.894279)"><g><path d="M 9.375 0 L 7.453125 0 L 4.203125 -4.46875 L 2.390625 -4.46875 L 2.390625 0 L 0.84375 0 L 0.84375 -10.375 L 5.0625 -10.375 C 5.46875 -10.375 5.851562 -10.296875 6.21875 -10.140625 C 6.582031 -9.984375 6.898438 -9.769531 7.171875 -9.5 C 7.441406 -9.238281 7.65625 -8.929688 7.8125 -8.578125 C 7.96875 -8.222656 8.046875 -7.835938 8.046875 -7.421875 C 8.046875 -7.085938 7.988281 -6.769531 7.875 -6.46875 C 7.769531 -6.164062 7.625 -5.890625 7.4375 -5.640625 C 7.25 -5.398438 7.019531 -5.1875 6.75 -5 C 6.488281 -4.820312 6.203125 -4.691406 5.890625 -4.609375 Z M 5.0625 -5.90625 C 5.269531 -5.90625 5.460938 -5.945312 5.640625 -6.03125 C 5.828125 -6.113281 5.984375 -6.222656 6.109375 -6.359375 C 6.242188 -6.492188 6.347656 -6.65625 6.421875 -6.84375 C 6.503906 -7.039062 6.546875 -7.242188 6.546875 -7.453125 C 6.546875 -7.671875 6.503906 -7.875 6.421875 -8.0625 C 6.347656 -8.25 6.242188 -8.410156 6.109375 -8.546875 C 5.984375 -8.691406 5.828125 -8.804688 5.640625 -8.890625 C 5.460938 -8.972656 5.269531 -9.015625 5.0625 -9.015625 L 2.390625 -9.015625 L 2.390625 -5.890625 Z M 5.0625 -5.90625 "/></g></g></g><g fill="#ffffff" fill-opacity="1"><g transform="translate(182.633514, 243.894279)"><g/></g></g><g fill="#ffffff" fill-opacity="1"><g transform="translate(187.253009, 243.894279)"><g><path d="M 7.8125 -10.375 L 7.8125 -9 L 2.34375 -9 L 2.34375 -6.171875 L 7.296875 -6.171875 L 7.296875 -4.75 L 2.34375 -4.75 L 2.34375 0 L 0.8125 0 L 0.8125 -10.375 Z M 7.8125 -10.375 "/></g></g></g><g fill="#ffffff" fill-opacity="1"><g transform="translate(195.950985, 243.894279)"><g><path d="M 5.625 -10.515625 C 6.332031 -10.515625 7 -10.375 7.625 -10.09375 C 8.25 -9.8125 8.789062 -9.425781 9.25 -8.9375 C 9.707031 -8.457031 10.070312 -7.894531 10.34375 -7.25 C 10.625 -6.601562 10.765625 -5.914062 10.765625 -5.1875 C 10.765625 -4.457031 10.625 -3.769531 10.34375 -3.125 C 10.070312 -2.488281 9.703125 -1.925781 9.234375 -1.4375 C 8.773438 -0.957031 8.234375 -0.578125 7.609375 -0.296875 C 6.984375 -0.015625 6.316406 0.125 5.609375 0.125 C 4.910156 0.125 4.25 -0.015625 3.625 -0.296875 C 3 -0.578125 2.453125 -0.957031 1.984375 -1.4375 C 1.523438 -1.925781 1.160156 -2.488281 0.890625 -3.125 C 0.628906 -3.769531 0.5 -4.457031 0.5 -5.1875 C 0.5 -5.914062 0.628906 -6.601562 0.890625 -7.25 C 1.160156 -7.894531 1.53125 -8.457031 2 -8.9375 C 2.46875 -9.425781 3.015625 -9.8125 3.640625 -10.09375 C 4.265625 -10.375 4.925781 -10.515625 5.625 -10.515625 Z M 5.625 -1.3125 C 6.125 -1.3125 6.585938 -1.410156 7.015625 -1.609375 C 7.453125 -1.816406 7.832031 -2.09375 8.15625 -2.4375 C 8.476562 -2.789062 8.734375 -3.203125 8.921875 -3.671875 C 9.109375 -4.148438 9.203125 -4.65625 9.203125 -5.1875 C 9.203125 -5.726562 9.109375 -6.234375 8.921875 -6.703125 C 8.734375 -7.171875 8.476562 -7.578125 8.15625 -7.921875 C 7.832031 -8.273438 7.453125 -8.550781 7.015625 -8.75 C 6.585938 -8.945312 6.125 -9.046875 5.625 -9.046875 C 5.132812 -9.046875 4.671875 -8.945312 4.234375 -8.75 C 3.796875 -8.550781 3.414062 -8.273438 3.09375 -7.921875 C 2.78125 -7.578125 2.523438 -7.171875 2.328125 -6.703125 C 2.140625 -6.234375 2.046875 -5.726562 2.046875 -5.1875 C 2.046875 -4.65625 2.140625 -4.148438 2.328125 -3.671875 C 2.523438 -3.203125 2.78125 -2.789062 3.09375 -2.4375 C 3.414062 -2.09375 3.796875 -1.816406 4.234375 -1.609375 C 4.671875 -1.410156 5.132812 -1.3125 5.625 -1.3125 Z M 5.625 -1.3125 "/></g></g></g><g fill="#ffffff" fill-opacity="1"><g transform="translate(207.967299, 243.894279)"><g><path d="M 9.375 0 L 7.453125 0 L 4.203125 -4.46875 L 2.390625 -4.46875 L 2.390625 0 L 0.84375 0 L 0.84375 -10.375 L 5.0625 -10.375 C 5.46875 -10.375 5.851562 -10.296875 6.21875 -10.140625 C 6.582031 -9.984375 6.898438 -9.769531 7.171875 -9.5 C 7.441406 -9.238281 7.65625 -8.929688 7.8125 -8.578125 C 7.96875 -8.222656 8.046875 -7.835938 8.046875 -7.421875 C 8.046875 -7.085938 7.988281 -6.769531 7.875 -6.46875 C 7.769531 -6.164062 7.625 -5.890625 7.4375 -5.640625 C 7.25 -5.398438 7.019531 -5.1875 6.75 -5 C 6.488281 -4.820312 6.203125 -4.691406 5.890625 -4.609375 Z M 5.0625 -5.90625 C 5.269531 -5.90625 5.460938 -5.945312 5.640625 -6.03125 C 5.828125 -6.113281 5.984375 -6.222656 6.109375 -6.359375 C 6.242188 -6.492188 6.347656 -6.65625 6.421875 -6.84375 C 6.503906 -7.039062 6.546875 -7.242188 6.546875 -7.453125 C 6.546875 -7.671875 6.503906 -7.875 6.421875 -8.0625 C 6.347656 -8.25 6.242188 -8.410156 6.109375 -8.546875 C 5.984375 -8.691406 5.828125 -8.804688 5.640625 -8.890625 C 5.460938 -8.972656 5.269531 -9.015625 5.0625 -9.015625 L 2.390625 -9.015625 L 2.390625 -5.890625 Z M 5.0625 -5.90625 "/></g></g></g><g fill="#ffffff" fill-opacity="1"><g transform="translate(218.360993, 243.894279)"><g/></g></g><g fill="#ffffff" fill-opacity="1"><g transform="translate(222.980495, 243.894279)"><g><path d="M 6.609375 -5.546875 L 9.4375 -5.546875 L 9.4375 -1.734375 C 8.96875 -1.179688 8.398438 -0.726562 7.734375 -0.375 C 7.066406 -0.03125 6.347656 0.140625 5.578125 0.140625 C 4.867188 0.140625 4.203125 0 3.578125 -0.28125 C 2.953125 -0.5625 2.410156 -0.941406 1.953125 -1.421875 C 1.492188 -1.910156 1.128906 -2.472656 0.859375 -3.109375 C 0.597656 -3.753906 0.46875 -4.441406 0.46875 -5.171875 C 0.46875 -5.898438 0.597656 -6.585938 0.859375 -7.234375 C 1.128906 -7.878906 1.492188 -8.441406 1.953125 -8.921875 C 2.410156 -9.410156 2.953125 -9.796875 3.578125 -10.078125 C 4.203125 -10.359375 4.867188 -10.5 5.578125 -10.5 C 6.210938 -10.5 6.816406 -10.367188 7.390625 -10.109375 C 7.972656 -9.859375 8.492188 -9.53125 8.953125 -9.125 L 8.046875 -7.96875 C 7.722656 -8.3125 7.347656 -8.585938 6.921875 -8.796875 C 6.492188 -9.003906 6.046875 -9.109375 5.578125 -9.109375 C 5.078125 -9.109375 4.609375 -9.003906 4.171875 -8.796875 C 3.742188 -8.585938 3.367188 -8.300781 3.046875 -7.9375 C 2.722656 -7.582031 2.46875 -7.164062 2.28125 -6.6875 C 2.09375 -6.21875 2 -5.710938 2 -5.171875 C 2 -4.640625 2.09375 -4.132812 2.28125 -3.65625 C 2.46875 -3.1875 2.722656 -2.773438 3.046875 -2.421875 C 3.367188 -2.066406 3.742188 -1.785156 4.171875 -1.578125 C 4.609375 -1.367188 5.078125 -1.265625 5.578125 -1.265625 C 6.035156 -1.265625 6.460938 -1.351562 6.859375 -1.53125 C 7.253906 -1.71875 7.609375 -1.960938 7.921875 -2.265625 L 7.921875 -4.125 L 6.609375 -4.125 Z M 6.609375 -5.546875 "/></g></g></g><g fill="#ffffff" fill-opacity="1"><g transform="translate(234.163569, 243.894279)"><g><path d="M 1.828125 0 L 0.15625 0 L 4.46875 -10.375 L 6.15625 -10.375 L 10.46875 0 L 8.8125 0 L 7.453125 -3.25 L 3.171875 -3.25 Z M 3.765625 -4.65625 L 6.875 -4.65625 L 5.328125 -8.390625 Z M 3.765625 -4.65625 "/></g></g></g><g fill="#ffffff" fill-opacity="1"><g transform="translate(245.66825, 243.894279)"><g><path d="M 9.65625 -10.375 L 11.1875 -10.375 L 11.1875 0 L 9.671875 0 L 9.671875 -7.953125 L 6.640625 -3.78125 L 5.453125 -3.78125 L 2.40625 -7.953125 L 2.40625 0 L 0.875 0 L 0.875 -10.375 L 2.40625 -10.375 L 6.046875 -5.375 Z M 9.65625 -10.375 "/></g></g></g><g fill="#ffffff" fill-opacity="1"><g transform="translate(258.532423, 243.894279)"><g><path d="M 7.15625 -10.375 L 7.15625 -9 L 2.34375 -9 L 2.34375 -6.171875 L 6.625 -6.171875 L 6.625 -4.75 L 2.34375 -4.75 L 2.34375 -1.421875 L 7.15625 -1.421875 L 7.15625 0 L 0.8125 0 L 0.8125 -10.375 Z M 7.15625 -10.375 "/></g></g></g><g fill="#ffffff" fill-opacity="1"><g transform="translate(267.361976, 243.894279)"><g><path d="M 9.375 0 L 7.453125 0 L 4.203125 -4.46875 L 2.390625 -4.46875 L 2.390625 0 L 0.84375 0 L 0.84375 -10.375 L 5.0625 -10.375 C 5.46875 -10.375 5.851562 -10.296875 6.21875 -10.140625 C 6.582031 -9.984375 6.898438 -9.769531 7.171875 -9.5 C 7.441406 -9.238281 7.65625 -8.929688 7.8125 -8.578125 C 7.96875 -8.222656 8.046875 -7.835938 8.046875 -7.421875 C 8.046875 -7.085938 7.988281 -6.769531 7.875 -6.46875 C 7.769531 -6.164062 7.625 -5.890625 7.4375 -5.640625 C 7.25 -5.398438 7.019531 -5.1875 6.75 -5 C 6.488281 -4.820312 6.203125 -4.691406 5.890625 -4.609375 Z M 5.0625 -5.90625 C 5.269531 -5.90625 5.460938 -5.945312 5.640625 -6.03125 C 5.828125 -6.113281 5.984375 -6.222656 6.109375 -6.359375 C 6.242188 -6.492188 6.347656 -6.65625 6.421875 -6.84375 C 6.503906 -7.039062 6.546875 -7.242188 6.546875 -7.453125 C 6.546875 -7.671875 6.503906 -7.875 6.421875 -8.0625 C 6.347656 -8.25 6.242188 -8.410156 6.109375 -8.546875 C 5.984375 -8.691406 5.828125 -8.804688 5.640625 -8.890625 C 5.460938 -8.972656 5.269531 -9.015625 5.0625 -9.015625 L 2.390625 -9.015625 L 2.390625 -5.890625 Z M 5.0625 -5.90625 "/></g></g></g><g fill="#ffffff" fill-opacity="1"><g transform="translate(277.75567, 243.894279)"><g/></g></g><g fill="#ffffff" fill-opacity="1"><g transform="translate(282.375172, 243.894279)"><g><path d="M 0.671875 -4.78125 L 4.96875 -4.78125 L 4.96875 -3.8125 L 0.671875 -3.8125 Z M 0.671875 -4.78125 "/></g></g></g></svg>