<svg xmlns="http://www.w3.org/2000/svg" xmlns:xlink="http://www.w3.org/1999/xlink" width="322" zoomAndPan="magnify" viewBox="0 0 241.5 239.249991" height="319" preserveAspectRatio="xMidYMid meet" version="1.0"><defs><clipPath id="c3a45786d5"><path d="M 0.128906 0 L 240.875 0 L 240.875 238.503906 L 0.128906 238.503906 Z M 0.128906 0 " clip-rule="nonzero"/></clipPath><clipPath id="25a11a5d06"><path d="M 95 75.042969 L 146 75.042969 L 146 107 L 95 107 Z M 95 75.042969 " clip-rule="nonzero"/></clipPath><clipPath id="a985311e54"><path d="M 75.660156 110 L 165.5625 110 L 165.5625 164.203125 L 75.660156 164.203125 Z M 75.660156 110 " clip-rule="nonzero"/></clipPath></defs><g clip-path="url(#c3a45786d5)"><path fill="#ffffff" d="M 0.128906 0 L 241.371094 0 L 241.371094 245.738281 L 0.128906 245.738281 Z M 0.128906 0 " fill-opacity="1" fill-rule="nonzero"/><path fill="#ffffff" d="M 0.128906 0 L 241.371094 0 L 241.371094 238.996094 L 0.128906 238.996094 Z M 0.128906 0 " fill-opacity="1" fill-rule="nonzero"/></g><g clip-path="url(#25a11a5d06)"><path fill="#f4bd32" d="M 141.492188 79.804688 L 134.183594 87.457031 C 132.269531 89.445312 129.035156 88.964844 127.777344 86.492188 L 123.046875 77.035156 C 122.027344 75.042969 119.214844 75.042969 118.195312 77.035156 L 113.527344 86.492188 C 112.328125 88.964844 109.035156 89.445312 107.117188 87.457031 L 99.8125 79.804688 C 98.195312 78.117188 95.382812 79.625 95.859375 81.914062 L 100.53125 102.582031 C 101.011719 104.632812 102.808594 106.136719 104.960938 106.136719 L 136.339844 106.136719 C 138.4375 106.136719 140.292969 104.691406 140.773438 102.582031 L 145.441406 81.914062 C 145.921875 79.625 143.109375 78.117188 141.492188 79.804688 Z M 141.492188 79.804688 " fill-opacity="1" fill-rule="nonzero"/></g><g clip-path="url(#a985311e54)"><path fill="#f4f6fc" d="M 149.296875 110.484375 L 91.929688 110.484375 C 82.945312 110.484375 75.699219 117.773438 75.699219 126.8125 L 75.699219 147.964844 C 75.699219 157.003906 82.945312 164.292969 91.929688 164.292969 L 149.296875 164.292969 C 158.277344 164.292969 165.523438 157.003906 165.523438 147.964844 L 165.523438 126.8125 C 165.523438 117.773438 158.277344 110.484375 149.296875 110.484375 Z M 149.296875 110.484375 " fill-opacity="1" fill-rule="nonzero"/></g><path fill="#4b0560" d="M 108.933594 132.296875 L 105.160156 132.296875 C 104.324219 132.296875 103.605469 131.632812 103.605469 130.730469 L 103.605469 126.933594 C 103.605469 126.089844 102.945312 125.367188 102.046875 125.367188 L 95.042969 125.367188 C 94.203125 125.367188 93.484375 126.03125 93.484375 126.933594 L 93.484375 130.730469 C 93.484375 131.574219 92.828125 132.296875 91.929688 132.296875 L 88.15625 132.296875 C 87.316406 132.296875 86.597656 132.960938 86.597656 133.863281 L 86.597656 140.972656 C 86.597656 141.816406 87.257812 142.539062 88.15625 142.539062 L 91.929688 142.539062 C 92.765625 142.539062 93.484375 143.203125 93.484375 144.105469 L 93.484375 147.902344 C 93.484375 148.746094 94.144531 149.46875 95.042969 149.46875 L 102.109375 149.46875 C 102.945312 149.46875 103.664062 148.808594 103.664062 147.902344 L 103.664062 144.105469 C 103.664062 143.261719 104.324219 142.539062 105.222656 142.539062 L 108.996094 142.539062 C 109.832031 142.539062 110.550781 141.878906 110.550781 140.972656 L 110.550781 133.863281 C 110.492188 132.960938 109.773438 132.296875 108.933594 132.296875 Z M 108.933594 132.296875 " fill-opacity="1" fill-rule="nonzero"/><path fill="#4b0560" d="M 144.503906 128.679688 C 144.503906 130.488281 143.066406 131.933594 141.269531 131.933594 C 139.472656 131.933594 138.039062 130.488281 138.039062 128.679688 C 138.039062 126.875 139.472656 125.425781 141.269531 125.425781 C 143.066406 125.425781 144.503906 126.875 144.503906 128.679688 Z M 144.503906 128.679688 " fill-opacity="1" fill-rule="nonzero"/><path fill="#4b0560" d="M 144.503906 146.097656 C 144.503906 147.902344 143.066406 149.351562 141.269531 149.351562 C 139.472656 149.351562 138.039062 147.902344 138.039062 146.097656 C 138.039062 144.289062 139.472656 142.84375 141.269531 142.84375 C 143.066406 142.84375 144.503906 144.289062 144.503906 146.097656 Z M 144.503906 146.097656 " fill-opacity="1" fill-rule="nonzero"/><path fill="#4b0560" d="M 149.953125 140.613281 C 148.15625 140.613281 146.71875 139.167969 146.71875 137.359375 C 146.71875 135.550781 148.15625 134.105469 149.953125 134.105469 C 151.75 134.105469 153.1875 135.550781 153.1875 137.359375 C 153.128906 139.167969 151.691406 140.613281 149.953125 140.613281 Z M 149.953125 140.613281 " fill-opacity="1" fill-rule="nonzero"/><path fill="#4b0560" d="M 132.589844 140.613281 C 130.792969 140.613281 129.355469 139.167969 129.355469 137.359375 C 129.355469 135.550781 130.792969 134.105469 132.589844 134.105469 C 134.382812 134.105469 135.820312 135.550781 135.820312 137.359375 C 135.820312 139.167969 134.382812 140.613281 132.589844 140.613281 Z M 132.589844 140.613281 " fill-opacity="1" fill-rule="nonzero"/></svg>